<svg xmlns="http://www.w3.org/2000/svg" xmlns:xlink="http://www.w3.org/1999/xlink" viewBox="0,0,256,256" width="50px" height="50px" fill-rule="nonzero"><g fill="#00447a" fill-rule="nonzero" stroke="none" stroke-width="1" stroke-linecap="butt" stroke-linejoin="miter" stroke-miterlimit="10" stroke-dasharray="" stroke-dashoffset="0" font-family="none" font-weight="none" font-size="none" text-anchor="none" style="mix-blend-mode: normal"><g transform="scale(5.12,5.12)"><path d="M25,2c-12.683,0 -23,10.318 -23,23c0,12.682 10.317,23 23,23c12.683,0 23,-10.318 23,-23c0,-12.682 -10.317,-23 -23,-23zM26,11c2.504,0 4,5.593 4,11c0,3.983 -0.92413,8.09534 -2.70312,11.15234c0.616,0.576 1.21912,0.84766 1.70313,0.84766c1.946,0 3.21278,-3.79945 4.05078,-6.31445c0.175,-0.525 0.74663,-0.80381 1.26563,-0.63281c0.524,0.175 0.80586,0.73967 0.63086,1.26367c-1.081,3.243 -2.55927,7.68359 -5.94727,7.68359c-0.879,0 -1.86641,-0.39775 -2.81641,-1.21875c-1.59,1.975 -3.66159,3.21875 -6.18359,3.21875c-2.89,0 -6,-2.19 -6,-7c0,-5.526 3.771,-7 6,-7c0.542,0 1.3217,0.14542 2.0957,0.48242c-0.063,-0.785 -0.0957,-1.61142 -0.0957,-2.48242c0,-1.126 0.112,-11 4,-11zM25.93945,13.00781c-0.7,0.193 -1.93945,3.65319 -1.93945,8.99219c0,1.706 0.13147,3.21134 0.35547,4.52734c0.02,0.067 0.03211,0.13513 0.03711,0.20313c0.363,2.013 0.94552,3.5717 1.60352,4.7207c1.319,-2.639 2.00391,-6.09717 2.00391,-9.45117c0,-5.484 -1.43455,-8.57519 -2.06055,-8.99219zM20,26c-0.668,0 -4,0.241 -4,5c0,3.69 2.154,5 4,5c1.971,0 3.59842,-1.03827 4.85742,-2.69727c-1.023,-1.435 -1.9013,-3.45819 -2.4043,-6.11719c-0.544,-0.764 -1.76712,-1.18555 -2.45312,-1.18555z"></path></g></g></svg>